<svg width="24" height="24" viewBox="0 0 24 24" fill="none" xmlns="http://www.w3.org/2000/svg">
<path d="M9 14.2515L15 8.25152M19.5 4.75852V21.7515L15.75 20.2515L12 21.7515L8.25 20.2515L4.5 21.7515V4.75852C4.5 3.65052 5.306 2.70152 6.407 2.57352C10.1232 2.14216 13.8768 2.14216 17.593 2.57352C18.693 2.70152 19.5 3.65052 19.5 4.75852ZM9.75 9.00152H9.758V9.00952H9.75V9.00152ZM10.125 9.00152C10.125 9.10098 10.0855 9.19636 10.0152 9.26669C9.94484 9.33701 9.84946 9.37652 9.75 9.37652C9.65054 9.37652 9.55516 9.33701 9.48483 9.26669C9.41451 9.19636 9.375 9.10098 9.375 9.00152C9.375 8.90207 9.41451 8.80668 9.48483 8.73636C9.55516 8.66603 9.65054 8.62652 9.75 8.62652C9.84946 8.62652 9.94484 8.66603 10.0152 8.73636C10.0855 8.80668 10.125 8.90207 10.125 9.00152ZM14.25 13.5015H14.258V13.5095H14.25V13.5015ZM14.625 13.5015C14.625 13.601 14.5855 13.6964 14.5152 13.7667C14.4448 13.837 14.3495 13.8765 14.25 13.8765C14.1505 13.8765 14.0552 13.837 13.9848 13.7667C13.9145 13.6964 13.875 13.601 13.875 13.5015C13.875 13.4021 13.9145 13.3067 13.9848 13.2364C14.0552 13.166 14.1505 13.1265 14.25 13.1265C14.3495 13.1265 14.4448 13.166 14.5152 13.2364C14.5855 13.3067 14.625 13.4021 14.625 13.5015Z" stroke="inherit" stroke-width="1.5" stroke-linecap="round" stroke-linejoin="round"/>
</svg>
