<svg width="16" height="17" viewBox="0 0 16 17" fill="none" xmlns="http://www.w3.org/2000/svg">
<path d="M10.7074 7.60551V4.71415C10.7074 4.07512 10.4535 3.46226 10.0016 3.0104C9.54978 2.55854 8.93692 2.30469 8.2979 2.30469C7.65887 2.30469 7.04601 2.55854 6.59415 3.0104C6.14229 3.46226 5.88843 4.07512 5.88843 4.71415V7.60551M13.1849 6.32496L13.9964 14.0352C14.0414 14.4625 13.7073 14.8339 13.2775 14.8339H3.31834C3.21695 14.834 3.11668 14.8128 3.02403 14.7716C2.93138 14.7304 2.84843 14.6702 2.78056 14.5949C2.7127 14.5196 2.66143 14.4308 2.6301 14.3344C2.59877 14.238 2.58808 14.1361 2.59871 14.0352L3.41086 6.32496C3.4296 6.14734 3.51343 5.98294 3.64619 5.86347C3.77895 5.74399 3.95124 5.6779 4.12985 5.67794H12.4659C12.836 5.67794 13.1464 5.95743 13.1849 6.32496ZM6.12938 7.60551C6.12938 7.66941 6.10399 7.73069 6.05881 7.77588C6.01362 7.82107 5.95234 7.84645 5.88843 7.84645C5.82453 7.84645 5.76324 7.82107 5.71806 7.77588C5.67287 7.73069 5.64749 7.66941 5.64749 7.60551C5.64749 7.5416 5.67287 7.48032 5.71806 7.43513C5.76324 7.38994 5.82453 7.36456 5.88843 7.36456C5.95234 7.36456 6.01362 7.38994 6.05881 7.43513C6.10399 7.48032 6.12938 7.5416 6.12938 7.60551ZM10.9483 7.60551C10.9483 7.66941 10.9229 7.73069 10.8777 7.77588C10.8325 7.82107 10.7713 7.84645 10.7074 7.84645C10.6435 7.84645 10.5822 7.82107 10.537 7.77588C10.4918 7.73069 10.4664 7.66941 10.4664 7.60551C10.4664 7.5416 10.4918 7.48032 10.537 7.43513C10.5822 7.38994 10.6435 7.36456 10.7074 7.36456C10.7713 7.36456 10.8325 7.38994 10.8777 7.43513C10.9229 7.48032 10.9483 7.5416 10.9483 7.60551Z" stroke="#344054" stroke-width="1.15654" stroke-linecap="round" stroke-linejoin="round"/>
</svg>
