<svg width="24" height="24" viewBox="0 0 24 24" fill="inherit" xmlns="http://www.w3.org/2000/svg">
<path d="M12.5832 24H11.4162C10.1285 24 9.08063 22.9529 9.08037 21.6646V21.0967C8.57957 20.9366 8.09431 20.7369 7.63018 20.4984L7.23057 20.8978C6.78946 21.3384 6.20275 21.5817 5.57884 21.5817C4.95492 21.5817 4.36875 21.3386 3.92738 20.8978L3.10191 20.0723C2.19133 19.1617 2.19133 17.6799 3.10191 16.7691L3.5018 16.3695C3.26331 15.9059 3.06283 15.4206 2.90277 14.9193H2.33587C1.04789 14.9193 0 13.8711 0 12.5831V11.4164C0 10.1284 1.04789 9.08047 2.33587 9.08047H2.90277C3.06337 8.57887 3.26385 8.09359 3.50206 7.63L3.10218 7.23011C2.66134 6.78927 2.41831 6.20282 2.41831 5.57863C2.41831 4.95444 2.66134 4.36826 3.10245 3.92688L3.92764 3.10168C4.36875 2.66057 4.95519 2.41753 5.5791 2.41753C6.20302 2.41753 6.78946 2.66057 7.23057 3.10141L7.63018 3.50157C8.09431 3.26281 8.57957 3.0626 9.08063 2.90227V2.33589C9.08063 1.0479 10.1285 0 11.4165 0H12.5832C13.8715 0 14.9191 1.0479 14.9191 2.33589V2.90227C15.4207 3.06287 15.9062 3.26335 16.3695 3.50157L16.7689 3.10195C17.2103 2.66111 17.7967 2.41807 18.4206 2.41807C19.0448 2.41807 19.631 2.66111 20.0724 3.10195L20.8978 3.92715C21.8084 4.83828 21.8084 6.32033 20.8978 7.23118L20.4985 7.6308C20.7372 8.09547 20.9374 8.58101 21.0975 9.081H21.6636C22.951 9.081 23.9992 10.1286 24 11.4164V12.5839C24 13.8719 22.9518 14.9195 21.6644 14.9203H21.0975C20.9372 15.4209 20.737 15.9061 20.4977 16.37L20.897 16.7694C21.8071 17.6802 21.8071 19.1617 20.8978 20.0726L20.0716 20.8981C19.631 21.3394 19.0448 21.5827 18.4206 21.5827C17.7964 21.5827 17.21 21.3397 16.7686 20.8981L16.3687 20.4987C15.9046 20.7375 15.4191 20.9379 14.9188 21.0977V21.6649C14.9191 22.9529 13.8712 24 12.5832 24ZM7.5258 19.1898C7.6259 19.1898 7.72654 19.215 7.81781 19.2675C8.44093 19.6275 9.11356 19.9048 9.8175 20.0937C10.0734 20.1625 10.2511 20.394 10.2511 20.6593V21.6646C10.2514 22.307 10.7739 22.8292 11.4162 22.8292H12.5832C13.2256 22.8292 13.7486 22.3073 13.7486 21.6646V20.6601C13.7486 20.3948 13.9261 20.1631 14.182 20.0945C14.8854 19.9056 15.5585 19.6275 16.1819 19.2683C16.4113 19.1358 16.7006 19.1743 16.8883 19.3614L17.5968 20.0702C18.0371 20.5099 18.8055 20.5107 19.2442 20.0702L20.0697 19.2455C20.5231 18.7905 20.5239 18.0509 20.0697 17.597L19.3609 16.8882C19.1736 16.7011 19.1353 16.4115 19.268 16.1821C19.6278 15.5584 19.9059 14.8858 20.0948 14.1827C20.1636 13.927 20.3952 13.7493 20.6596 13.7493H21.6641C22.3068 13.749 22.8295 13.2263 22.8295 12.5839V11.4166C22.8295 10.7745 22.3068 10.2515 21.6641 10.2515H20.6596C20.3952 10.2515 20.1634 10.0738 20.0948 9.81788C19.9059 9.11526 19.6278 8.44236 19.2688 7.8179C19.1361 7.58851 19.1749 7.29917 19.3617 7.11181L20.0705 6.40303C20.2908 6.18301 20.4118 5.89019 20.4118 5.5789C20.4118 5.26761 20.2908 4.97478 20.0705 4.75477L19.2448 3.9301C18.805 3.48979 18.0365 3.49006 17.597 3.92983L16.8883 4.63887C16.7009 4.82596 16.4108 4.8637 16.1817 4.73201C15.5609 4.37388 14.8883 4.09551 14.1817 3.9052C13.9263 3.83641 13.7486 3.60462 13.7486 3.3399V2.33589C13.7486 1.6935 13.2262 1.17076 12.5835 1.17076H11.4168C10.7744 1.17076 10.2514 1.6935 10.2514 2.33589V3.3399C10.2514 3.60462 10.0739 3.83641 9.81804 3.9052C9.11329 4.09471 8.44066 4.37308 7.81808 4.73201C7.5887 4.86424 7.29882 4.82596 7.11146 4.63887L6.40243 3.92956C5.96213 3.48952 5.19474 3.48925 4.75498 3.92983L3.92978 4.75503C3.70977 4.97505 3.58879 5.26761 3.58879 5.5789C3.58879 5.89019 3.71003 6.18248 3.92978 6.4025L4.63882 7.11181C4.82591 7.29917 4.86419 7.58878 4.73196 7.81817C4.3733 8.43995 4.0952 9.11285 3.90516 9.81815C3.83637 10.0738 3.60458 10.2512 3.33986 10.2512H2.33533C1.69295 10.2512 1.17021 10.774 1.17021 11.4164V12.5831C1.17021 13.2258 1.69295 13.7485 2.33533 13.7485H3.33986C3.60458 13.7485 3.8361 13.926 3.90516 14.1819C4.09493 14.8871 4.37303 15.5595 4.73169 16.1816C4.86418 16.411 4.82591 16.7006 4.63855 16.8882L3.92952 17.597C3.4753 18.0509 3.4753 18.7905 3.92952 19.2447L4.75471 20.0702C5.19448 20.5091 5.96266 20.5091 6.40269 20.0694L7.11146 19.3611C7.22468 19.2484 7.3743 19.1898 7.5258 19.1898Z" fill="inherit"/>
<path d="M12 17.0592C9.24303 17.0592 7 14.8029 7 12.0293C7 9.2563 9.24303 7 12 7C14.757 7 17 9.2563 17 12.0293C17 14.8029 14.757 17.0592 12 17.0592ZM12 8.38254C10.0004 8.38254 8.37409 10.0185 8.37409 12.0296C8.37409 14.041 10.0004 15.677 12 15.677C13.9996 15.677 15.6259 14.0407 15.6259 12.0296C15.6259 10.0185 13.9996 8.38254 12 8.38254Z" fill="inherit"/>
</svg>
