<svg width="24" height="23" viewBox="0 0 27 26" fill="inherit" xmlns="http://www.w3.org/2000/svg">
<path d="M22.8462 26H4.15385C3.05256 25.9988 1.99673 25.577 1.218 24.8271C0.439271 24.0772 0.00123686 23.0605 0 22V4C0.00123686 2.9395 0.439271 1.92278 1.218 1.17289C1.99673 0.423001 3.05256 0.00119105 4.15385 0H22.8462C23.9474 0.00119105 25.0033 0.423001 25.782 1.17289C26.5607 1.92278 26.9988 2.9395 27 4V22C26.9988 23.0605 26.5607 24.0772 25.782 24.8271C25.0033 25.577 23.9474 25.9988 22.8462 26ZM4.15385 2C3.60318 2.00053 3.07523 2.21141 2.68585 2.58637C2.29647 2.96133 2.07747 3.46973 2.07692 4V22C2.07747 22.5303 2.29647 23.0387 2.68585 23.4136C3.07523 23.7886 3.60318 23.9995 4.15385 24H22.8462C23.3968 23.9995 23.9248 23.7886 24.3142 23.4136C24.7035 23.0387 24.9225 22.5303 24.9231 22V4C24.9225 3.46973 24.7035 2.96133 24.3142 2.58637C23.9248 2.21141 23.3968 2.00053 22.8462 2H4.15385Z" fill="inherit"/>
<path d="M19.2118 11C18.4929 11 17.7902 10.7947 17.1925 10.4101C16.5948 10.0256 16.1289 9.47894 15.8538 8.83939C15.5787 8.19985 15.5067 7.49612 15.647 6.81719C15.7872 6.13825 16.1334 5.51461 16.6417 5.02513C17.15 4.53564 17.7976 4.2023 18.5027 4.06725C19.2077 3.9322 19.9385 4.00152 20.6027 4.26642C21.2668 4.53133 21.8345 4.97993 22.2338 5.55551C22.6332 6.13108 22.8464 6.80777 22.8464 7.5C22.8452 8.42792 22.4619 9.31751 21.7806 9.97365C21.0992 10.6298 20.1754 10.9989 19.2118 11ZM19.2118 6C18.9037 6 18.6025 6.08798 18.3464 6.2528C18.0902 6.41762 17.8905 6.65189 17.7726 6.92598C17.6547 7.20007 17.6239 7.50167 17.684 7.79264C17.7441 8.08361 17.8925 8.35088 18.1103 8.56066C18.3282 8.77044 18.6057 8.9133 18.9079 8.97118C19.21 9.02906 19.5232 8.99935 19.8079 8.88582C20.0925 8.77229 20.3358 8.58003 20.5069 8.33336C20.6781 8.08668 20.7695 7.79667 20.7695 7.5C20.769 7.10232 20.6047 6.72105 20.3127 6.43984C20.0207 6.15863 19.6247 6.00045 19.2118 6Z" fill="inherit"/>
<path d="M1.0373 22C0.847466 21.9998 0.661319 21.9495 0.499096 21.8545C0.336872 21.7596 0.204781 21.6236 0.117179 21.4614C0.0295766 21.2993 -0.0101843 21.117 0.00221931 20.9346C0.0146229 20.7522 0.0787163 20.5766 0.187531 20.4268L4.84181 14.0239C5.23595 13.4971 5.7542 13.0678 6.35402 12.7712C6.95385 12.4747 7.61815 12.3193 8.29241 12.3179C8.96821 12.3251 9.63196 12.4911 10.226 12.8015C10.82 13.1119 11.3263 13.5574 11.7008 14.0991L14.6312 18.3311L16.5731 16.0869C16.9594 15.6397 17.4425 15.2792 17.9886 15.0305C18.5347 14.7819 19.1306 14.6512 19.7346 14.6475C20.3383 14.6458 20.9353 14.7697 21.4847 15.0107C22.0341 15.2517 22.523 15.6041 22.9179 16.0439L26.7498 20.3491C26.8386 20.4488 26.9061 20.5644 26.9485 20.6892C26.9908 20.814 27.0073 20.9457 26.9968 21.0766C26.9864 21.2076 26.9492 21.3353 26.8875 21.4524C26.8258 21.5695 26.7408 21.6738 26.6372 21.7593C26.5337 21.8447 26.4137 21.9097 26.284 21.9506C26.1544 21.9914 26.0177 22.0072 25.8817 21.9971C25.7457 21.9871 25.6131 21.9513 25.4915 21.8919C25.3699 21.8325 25.2616 21.7506 25.1728 21.6509L21.3409 17.3457C21.1514 17.1168 20.9085 16.9343 20.6319 16.8129C20.3553 16.6916 20.0529 16.6349 19.7492 16.6475C19.4472 16.6494 19.1492 16.7148 18.8761 16.8392C18.603 16.9636 18.3614 17.1439 18.1682 17.3675L15.336 20.64C15.2314 20.7581 15.1002 20.8517 14.9524 20.9138C14.8047 20.9759 14.6442 21.0048 14.4831 20.9984C14.3217 20.9902 14.1645 20.9458 14.0241 20.8688C13.8837 20.7917 13.7639 20.6841 13.6743 20.5546L9.97275 15.2084C9.78728 14.9358 9.53453 14.7118 9.23711 14.5564C8.9397 14.401 8.60691 14.319 8.26853 14.3178L8.24319 14.3173C7.90911 14.3151 7.57957 14.3917 7.28331 14.5404C6.98704 14.6891 6.73307 14.9053 6.54354 15.1703L1.88915 21.5731C1.79346 21.7051 1.666 21.8129 1.51767 21.8873C1.36933 21.9616 1.20452 22.0003 1.0373 22Z" fill="inherit"/>
</svg>
