<svg width="16" height="26" viewBox="0 0 14 24" fill="inherit" xmlns="http://www.w3.org/2000/svg">
<path d="M2.32016 23.3994L11.6802 23.3994C12.8268 23.3994 13.7598 22.4666 13.7598 21.3198L13.7598 2.67996C13.7598 1.53316 12.8268 0.600351 11.6802 0.600351L2.32016 0.600351C1.17348 0.600351 0.240547 1.53316 0.240547 2.67996L0.240547 21.3198C0.240547 22.4666 1.17348 23.3994 2.32016 23.3994ZM1.43984 2.67996C1.43984 2.19457 1.83477 1.79941 2.32016 1.79941L11.6802 1.79941C12.1655 1.79941 12.5605 2.19457 12.5605 2.67996V5.99941L1.43984 5.99941V2.67996ZM1.43984 5.99941L12.5605 5.99941L12.5605 19.0204L1.43984 19.0204L1.43984 5.99941ZM1.43984 20.2194L12.5605 20.2194V21.3198C12.5605 21.8052 12.1655 22.2004 11.6802 22.2004L2.32016 22.2004C1.83477 22.2004 1.43984 21.8052 1.43984 21.3198V20.2194Z" fill="inherit"/>
<path d="M7.4249 21.6337C7.53529 21.5233 7.6001 21.3672 7.6001 21.2088C7.6001 21.0527 7.53529 20.8968 7.4249 20.7864C7.31217 20.6737 7.15854 20.6111 7.0001 20.6111C6.84178 20.6111 6.68814 20.6737 6.57529 20.7864C6.4649 20.8968 6.4001 21.0527 6.4001 21.2088C6.4001 21.3672 6.4649 21.5233 6.57529 21.6337C6.79854 21.8568 7.20178 21.8568 7.4249 21.6337Z" fill="inherit"/>
</svg>
