<svg width="24" height="24" viewBox="0 0 20 20" fill="inherit" xmlns="http://www.w3.org/2000/svg">
<path d="M15 9.5C15.89 9.5 16.76 9.23608 17.5001 8.74162C18.2401 8.24715 18.8169 7.54434 19.1575 6.72208C19.4981 5.89981 19.5872 4.99501 19.4135 4.1221C19.2399 3.24918 18.8113 2.44736 18.182 1.81802C17.5526 1.18868 16.7508 0.760102 15.8779 0.586468C15.005 0.412835 14.1002 0.50195 13.2779 0.842544C12.4557 1.18314 11.7529 1.75991 11.2584 2.49994C10.7639 3.23996 10.5 4.10999 10.5 5C10.5026 6.19266 10.9776 7.33572 11.8209 8.17906C12.6643 9.02241 13.8073 9.49736 15 9.5ZM15 2C15.5933 2 16.1734 2.17595 16.6667 2.50559C17.1601 2.83524 17.5446 3.30377 17.7716 3.85195C17.9987 4.40013 18.0581 5.00333 17.9424 5.58527C17.8266 6.16722 17.5409 6.70177 17.1213 7.12132C16.7018 7.54088 16.1672 7.8266 15.5853 7.94236C15.0033 8.05811 14.4001 7.9987 13.8519 7.77164C13.3038 7.54458 12.8352 7.16006 12.5056 6.66671C12.1759 6.17337 12 5.59335 12 5C12 4.20435 12.3161 3.44129 12.8787 2.87868C13.4413 2.31607 14.2044 2 15 2Z" fill="inherit"/>
<path d="M7.75 0.5H2.25C1.78668 0.502625 1.34309 0.687842 1.01546 1.01546C0.687842 1.34309 0.502625 1.78668 0.5 2.25V7.75C0.502625 8.21332 0.687842 8.65691 1.01546 8.98454C1.34309 9.31216 1.78668 9.49737 2.25 9.5H7.75C8.21332 9.49737 8.65691 9.31216 8.98454 8.98454C9.31216 8.65691 9.49737 8.21332 9.5 7.75V2.25C9.49737 1.78668 9.31216 1.34309 8.98454 1.01546C8.65691 0.687842 8.21332 0.502625 7.75 0.5ZM8 7.75C8 7.8163 7.97366 7.87989 7.92678 7.92678C7.87989 7.97366 7.8163 8 7.75 8H2.25C2.1837 8 2.12011 7.97366 2.07322 7.92678C2.02634 7.87989 2 7.8163 2 7.75V2.25C2 2.1837 2.02634 2.12011 2.07322 2.07322C2.12011 2.02634 2.1837 2 2.25 2H7.75C7.8163 2 7.87989 2.02634 7.92678 2.07322C7.97366 2.12011 8 2.1837 8 2.25V7.75Z" fill="inherit"/>
<path d="M7.75 10.5H2.25C1.78668 10.5026 1.34309 10.6878 1.01546 11.0155C0.687842 11.3431 0.502625 11.7867 0.5 12.25V17.75C0.502625 18.2133 0.687842 18.6569 1.01546 18.9845C1.34309 19.3122 1.78668 19.4974 2.25 19.5H7.75C8.21332 19.4974 8.65691 19.3122 8.98454 18.9845C9.31216 18.6569 9.49737 18.2133 9.5 17.75V12.25C9.49737 11.7867 9.31216 11.3431 8.98454 11.0155C8.65691 10.6878 8.21332 10.5026 7.75 10.5ZM8 17.75C8 17.8163 7.97366 17.8799 7.92678 17.9268C7.87989 17.9737 7.8163 18 7.75 18H2.25C2.1837 18 2.12011 17.9737 2.07322 17.9268C2.02634 17.8799 2 17.8163 2 17.75V12.25C2 12.1837 2.02634 12.1201 2.07322 12.0732C2.12011 12.0263 2.1837 12 2.25 12H7.75C7.8163 12 7.87989 12.0263 7.92678 12.0732C7.97366 12.1201 8 12.1837 8 12.25V17.75Z" fill="inherit"/>
<path d="M17.75 10.5H12.25C11.7867 10.5026 11.3431 10.6878 11.0155 11.0155C10.6878 11.3431 10.5026 11.7867 10.5 12.25V17.75C10.5026 18.2133 10.6878 18.6569 11.0155 18.9845C11.3431 19.3122 11.7867 19.4974 12.25 19.5H17.75C18.2133 19.4974 18.6569 19.3122 18.9845 18.9845C19.3122 18.6569 19.4974 18.2133 19.5 17.75V12.25C19.4974 11.7867 19.3122 11.3431 18.9845 11.0155C18.6569 10.6878 18.2133 10.5026 17.75 10.5ZM18 17.75C18 17.8163 17.9737 17.8799 17.9268 17.9268C17.8799 17.9737 17.8163 18 17.75 18H12.25C12.1837 18 12.1201 17.9737 12.0732 17.9268C12.0263 17.8799 12 17.8163 12 17.75V12.25C12 12.1837 12.0263 12.1201 12.0732 12.0732C12.1201 12.0263 12.1837 12 12.25 12H17.75C17.8163 12 17.8799 12.0263 17.9268 12.0732C17.9737 12.1201 18 12.1837 18 12.25V17.75Z" fill="#inherit"/>
</svg>
