<svg width="43" height="16" viewBox="0 0 43 16" fill="none" xmlns="http://www.w3.org/2000/svg">
<path d="M13.3827 4.51892C11.6151 4.51892 10.3558 5.72741 10.3558 7.38204V7.39333C10.3558 8.94066 11.4513 10.0814 13.0156 10.0814C14.1337 10.0814 14.8453 9.51102 15.1446 8.86724H15.2575C15.2575 8.92936 15.2519 8.99148 15.2519 9.0536C15.1898 10.6122 14.642 11.8772 13.3488 11.8772C12.6316 11.8772 12.129 11.5045 11.9144 10.9341L11.8975 10.8776H10.4631L10.4744 10.9398C10.7341 12.1878 11.8523 13.0744 13.3488 13.0744C15.3987 13.0744 16.6354 11.448 16.6354 8.70348V8.69218C16.6354 5.75565 15.122 4.51892 13.3827 4.51892ZM13.377 8.96325C12.4509 8.96325 11.7789 8.28559 11.7789 7.34251V7.33121C11.7789 6.42202 12.4961 5.70483 13.394 5.70483C14.2975 5.70483 15.0034 6.43331 15.0034 7.3651V7.37639C15.0034 8.29688 14.2975 8.96325 13.377 8.96325ZM18.8138 7.59098C19.3333 7.59098 19.7117 7.19568 19.7117 6.69873C19.7117 6.19613 19.3333 5.80647 18.8138 5.80647C18.2999 5.80647 17.9158 6.19613 17.9158 6.69873C17.9158 7.19568 18.2999 7.59098 18.8138 7.59098ZM18.8138 11.7812C19.3333 11.7812 19.7117 11.3915 19.7117 10.8889C19.7117 10.3863 19.3333 9.99668 18.8138 9.99668C18.2999 9.99668 17.9158 10.3863 17.9158 10.8889C17.9158 11.3915 18.2999 11.7812 18.8138 11.7812ZM24.9451 12.8711H26.3399V11.3068H27.4355V10.104H26.3399V4.72222H24.2787C23.1719 6.40508 22.0142 8.27994 20.9582 10.1153V11.3068H24.9451V12.8711ZM22.3135 10.1379V10.0532C23.1041 8.66959 24.0472 7.1618 24.883 5.88553H24.9677V10.1379H22.3135ZM30.427 12.8711H31.884V4.72222H30.4326L28.3036 6.21872V7.59098L30.331 6.1566H30.427V12.8711Z" fill="black"/>
</svg>
