<svg width="13" height="17" viewBox="0 0 13 17" fill="none" xmlns="http://www.w3.org/2000/svg">
<path fill-rule="evenodd" clip-rule="evenodd" d="M6.05709 16.1625L6.11106 16.1933L6.13265 16.2057C6.21826 16.252 6.31405 16.2762 6.41138 16.2762C6.5087 16.2762 6.60449 16.252 6.6901 16.2057L6.71169 16.1941L6.76644 16.1625C7.068 15.9837 7.36225 15.7928 7.64849 15.5904C8.38951 15.0672 9.08186 14.4784 9.71716 13.8309C11.216 12.2966 12.7727 9.99119 12.7727 7.02504C12.7727 5.33801 12.1026 3.72007 10.9097 2.52715C9.71674 1.33424 8.0988 0.664063 6.41176 0.664062C4.72473 0.664063 3.10678 1.33424 1.91387 2.52715C0.720954 3.72007 0.0507813 5.33801 0.0507812 7.02504C0.0507813 9.99042 1.60826 12.2966 3.10636 13.8309C3.74142 14.4783 4.43352 15.0672 5.17426 15.5904C5.46075 15.7929 5.75527 15.9837 6.05709 16.1625ZM6.41176 9.33813C7.02523 9.33813 7.61357 9.09443 8.04736 8.66064C8.48115 8.22685 8.72485 7.63851 8.72485 7.02504C8.72485 6.41158 8.48115 5.82323 8.04736 5.38945C7.61357 4.95566 7.02523 4.71196 6.41176 4.71196C5.79829 4.71196 5.20995 4.95566 4.77616 5.38945C4.34238 5.82323 4.09868 6.41158 4.09868 7.02504C4.09868 7.63851 4.34238 8.22685 4.77616 8.66064C5.20995 9.09443 5.79829 9.33813 6.41176 9.33813Z" fill="#475467"/>
</svg>
