<svg width="14" height="24" viewBox="0 0 16 28" fill="none" xmlns="http://www.w3.org/2000/svg">
<path d="M13.7143 28C14.975 28 16 26.975 16 25.7143V14.2857C16 13.025 14.975 12 13.7143 12H2.28571C1.025 12 0 13.025 0 14.2857V25.7143C0 26.975 1.025 28 2.28571 28H13.7143ZM8 23.4286C7.76071 23.4286 7.53571 23.3286 7.37143 23.1536L3.65714 19.1536C3.425 18.9036 3.36429 18.5393 3.5 18.2286C3.63571 17.9179 3.94643 17.7143 4.28571 17.7143H11.7143C12.0536 17.7143 12.3643 17.9179 12.5 18.2286C12.6357 18.5393 12.575 18.9036 12.3429 19.1536L8.62857 23.1536C8.46786 23.3286 8.23929 23.4286 8 23.4286Z" fill="#344054"/>
<path d="M2.28571 -7.15256e-07C1.025 -7.15256e-07 -7.15256e-07 1.025 -7.15256e-07 2.28571V13.7143C-7.15256e-07 14.975 1.025 16 2.28571 16L13.7143 16C14.975 16 16 14.975 16 13.7143V2.28571C16 1.025 14.975 -7.15256e-07 13.7143 -7.15256e-07H2.28571ZM8 4.57143C8.23929 4.57143 8.46429 4.67143 8.62857 4.84643L12.3429 8.84643C12.575 9.09643 12.6357 9.46071 12.5 9.77143C12.3643 10.0821 12.0536 10.2857 11.7143 10.2857L4.28571 10.2857C3.94643 10.2857 3.63571 10.0821 3.5 9.77143C3.36429 9.46071 3.425 9.09643 3.65714 8.84643L7.37143 4.84643C7.53214 4.67143 7.76071 4.57143 8 4.57143Z" fill="#344054"/>
<path d="M7.256 4.82841C7.65334 4.38599 8.34666 4.38599 8.744 4.82841L12.564 9.08182C13.1421 9.72558 12.6853 10.75 11.82 10.75H4.18001C3.31474 10.75 2.85786 9.72558 3.43602 9.08182L7.256 4.82841Z" fill="white"/>
<path d="M8.744 23.1716C8.34666 23.614 7.65334 23.614 7.256 23.1716L3.43602 18.9182C2.85786 18.2744 3.31474 17.25 4.18002 17.25H11.82C12.6853 17.25 13.1421 18.2744 12.564 18.9182L8.744 23.1716Z" fill="white"/>
</svg>
