<svg xmlns="http://www.w3.org/2000/svg" xmlns:xlink="http://www.w3.org/1999/xlink" version="1.2" baseProfile="tiny" x="0px" y="0px" viewBox="0 0 100 125" xml:space="preserve"><g><path d="M69.5,2.5019531h-39c-4.777832,0-8.6650391,3.8867188-8.6650391,8.6650391v77.6660156   c0,4.7783203,3.887207,8.6650391,8.6650391,8.6650391h39c4.777832,0,8.6650391-3.8867188,8.6650391-8.6650391V11.1669922   C78.1650391,6.3886719,74.277832,2.5019531,69.5,2.5019531z M73.1679688,88.8330078   c0,2.0224609-1.6455078,3.6689453-3.6679688,3.6689453h-39c-2.0224609,0-3.6679688-1.6464844-3.6679688-3.6689453v-8.8349609   h46.3359375V88.8330078z M73.1679688,75.0019531H26.8320313V20.7480469h46.3359375V75.0019531z M73.1679688,15.7519531H26.8320313   v-4.5849609c0-2.0224609,1.6455078-3.6689453,3.6679688-3.6689453h39c2.0224609,0,3.6679688,1.6464844,3.6679688,3.6689453   V15.7519531z"/><path d="M48.2299805,9.859375C47.7700195,10.3193359,47.5,10.9697266,47.5,11.6298828   c0,0.6503906,0.2700195,1.2998047,0.7299805,1.7597656C48.699707,13.859375,49.3398438,14.1201172,50,14.1201172   c0.659668,0,1.2998047-0.2607422,1.7700195-0.7304688C52.2299805,12.9296875,52.5,12.2802734,52.5,11.6298828   c0-0.6601563-0.2700195-1.3105469-0.7299805-1.7705078C50.8398438,8.9296875,49.159668,8.9296875,48.2299805,9.859375z"/><path d="M43.5834961,88.7480469h12.8330078c1.3798828,0,2.4985352-1.1181641,2.4985352-2.4980469   s-1.1186523-2.4980469-2.4985352-2.4980469H43.5834961c-1.3798828,0-2.4985352,1.1181641-2.4985352,2.4980469   S42.2036133,88.7480469,43.5834961,88.7480469z"/></g><text x="0" y="115" fill="#000000" font-size="5px" font-weight="bold" font-family="'Helvetica Neue', Helvetica, Arial-Unicode, Arial, Sans-serif">Created by black</text><text x="0" y="120" fill="#000000" font-size="5px" font-weight="bold" font-family="'Helvetica Neue', Helvetica, Arial-Unicode, Arial, Sans-serif">from the Noun Project</text></svg>