<svg xmlns="http://www.w3.org/2000/svg" viewBox="0 0 24 30" x="0px" y="0px"><title>categories, ui, apps, menu, options, add, interface</title><g data-name="Layer 2"><path d="M17,11.5A4.5,4.5,0,1,0,12.5,7,4.51,4.51,0,0,0,17,11.5ZM17,4a3,3,0,1,1-3,3A3,3,0,0,1,17,4Z"/><path d="M9.75,2.5H4.25A1.76,1.76,0,0,0,2.5,4.25v5.5A1.76,1.76,0,0,0,4.25,11.5h5.5A1.76,1.76,0,0,0,11.5,9.75V4.25A1.76,1.76,0,0,0,9.75,2.5ZM10,9.75a.25.25,0,0,1-.25.25H4.25A.25.25,0,0,1,4,9.75V4.25A.25.25,0,0,1,4.25,4h5.5a.25.25,0,0,1,.25.25Z"/><path d="M9.75,12.5H4.25A1.76,1.76,0,0,0,2.5,14.25v5.5A1.76,1.76,0,0,0,4.25,21.5h5.5a1.76,1.76,0,0,0,1.75-1.75v-5.5A1.76,1.76,0,0,0,9.75,12.5ZM10,19.75a.25.25,0,0,1-.25.25H4.25A.25.25,0,0,1,4,19.75v-5.5A.25.25,0,0,1,4.25,14h5.5a.25.25,0,0,1,.25.25Z"/><path d="M19.75,12.5h-5.5a1.76,1.76,0,0,0-1.75,1.75v5.5a1.76,1.76,0,0,0,1.75,1.75h5.5a1.76,1.76,0,0,0,1.75-1.75v-5.5A1.76,1.76,0,0,0,19.75,12.5ZM20,19.75a.25.25,0,0,1-.25.25h-5.5a.25.25,0,0,1-.25-.25v-5.5a.25.25,0,0,1,.25-.25h5.5a.25.25,0,0,1,.25.25Z"/></g><text x="0" y="39" fill="#000000" font-size="5px" font-weight="bold" font-family="'Helvetica Neue', Helvetica, Arial-Unicode, Arial, Sans-serif">Created by Dwi ridwanto</text><text x="0" y="44" fill="#000000" font-size="5px" font-weight="bold" font-family="'Helvetica Neue', Helvetica, Arial-Unicode, Arial, Sans-serif">from the Noun Project</text></svg>