<svg xmlns="http://www.w3.org/2000/svg" xmlns:xlink="http://www.w3.org/1999/xlink" version="1.1" x="0px" y="0px" viewBox="0 -2.5 100 125" enable-background="new 0 -2.5 100 100" xml:space="preserve"><g><g><path d="M52.012,92.165h-4.36c-4.811,0-8.726-3.912-8.727-8.725v-2.122c-1.871-0.598-3.684-1.344-5.418-2.235l-1.493,1.492    c-1.648,1.646-3.84,2.555-6.171,2.555c-2.331,0-4.521-0.908-6.17-2.555l-3.084-3.084c-3.402-3.402-3.402-8.938,0-12.341    l1.494-1.493c-0.891-1.732-1.64-3.545-2.238-5.418h-2.118C8.915,58.239,5,54.323,5,49.511v-4.359c0-4.812,3.915-8.727,8.727-8.727    h2.118c0.6-1.874,1.349-3.687,2.239-5.419l-1.494-1.494c-1.647-1.647-2.555-3.838-2.555-6.17s0.908-4.522,2.556-6.171l3.083-3.083    c1.648-1.648,3.839-2.556,6.17-2.556s4.522,0.908,6.17,2.555l1.493,1.495c1.734-0.892,3.547-1.64,5.419-2.239v-2.116    c0-4.812,3.915-8.727,8.727-8.727h4.359c4.813,0,8.727,3.915,8.727,8.727v2.116c1.874,0.6,3.688,1.349,5.419,2.239l1.492-1.493    c1.649-1.647,3.84-2.555,6.171-2.555c2.332,0,4.522,0.908,6.171,2.555l3.084,3.083c3.402,3.404,3.402,8.941,0,12.344l-1.492,1.493    c0.892,1.736,1.64,3.55,2.238,5.418h2.115c4.81,0,8.726,3.914,8.729,8.725v4.362c0,4.812-3.916,8.726-8.726,8.729h-2.118    c-0.599,1.87-1.347,3.683-2.241,5.416l1.492,1.492c3.4,3.403,3.4,8.938,0.003,12.341l-3.087,3.084    c-1.646,1.649-3.836,2.558-6.168,2.558s-4.523-0.908-6.172-2.558l-1.494-1.492c-1.734,0.892-3.548,1.641-5.417,2.238v2.119    C60.739,88.253,56.824,92.165,52.012,92.165z M33.117,74.194c0.374,0,0.75,0.094,1.091,0.29c2.328,1.345,4.841,2.381,7.471,3.087    c0.956,0.257,1.62,1.122,1.62,2.113v3.756c0.001,2.4,1.953,4.351,4.353,4.351h4.36c2.4,0,4.354-1.95,4.354-4.351v-3.753    c0-0.991,0.663-1.857,1.619-2.113c2.628-0.706,5.143-1.745,7.472-3.087c0.857-0.495,1.938-0.351,2.639,0.348l2.647,2.648    c1.645,1.643,4.516,1.646,6.155,0l3.084-3.081c1.694-1.7,1.697-4.463,0-6.159l-2.648-2.648c-0.7-0.699-0.843-1.781-0.347-2.638    c1.344-2.33,2.383-4.843,3.089-7.47c0.257-0.955,1.122-1.619,2.11-1.619h3.753c2.401-0.001,4.354-1.954,4.354-4.354v-4.361    c0-2.399-1.953-4.353-4.354-4.353h-3.753c-0.988,0-1.854-0.664-2.11-1.62c-0.706-2.625-1.745-5.139-3.086-7.472    c-0.496-0.857-0.351-1.938,0.347-2.638l2.648-2.648c0.823-0.822,1.275-1.916,1.275-3.079s-0.452-2.257-1.275-3.079L76.9,17.183    c-1.643-1.645-4.514-1.644-6.156-0.001l-2.648,2.649c-0.7,0.699-1.784,0.84-2.64,0.348c-2.319-1.338-4.832-2.378-7.472-3.089    c-0.954-0.257-1.618-1.123-1.618-2.112v-3.751c0-2.4-1.952-4.353-4.353-4.353h-4.359c-2.4,0-4.354,1.953-4.354,4.353v3.751    c0,0.989-0.663,1.855-1.619,2.112c-2.633,0.708-5.146,1.748-7.472,3.089c-0.857,0.494-1.94,0.351-2.64-0.348l-2.649-2.65    c-1.645-1.644-4.512-1.645-6.155,0.001l-3.083,3.083c-0.822,0.822-1.274,1.915-1.274,3.078s0.453,2.255,1.274,3.077l2.649,2.65    c0.699,0.7,0.842,1.782,0.348,2.639c-1.34,2.323-2.379,4.837-3.089,7.472c-0.257,0.955-1.123,1.618-2.112,1.618h-3.753    c-2.4,0-4.353,1.953-4.353,4.353v4.359c0,2.401,1.953,4.354,4.353,4.354h3.753c0.989,0,1.854,0.663,2.112,1.619    c0.709,2.635,1.748,5.147,3.088,7.471c0.495,0.857,0.352,1.939-0.348,2.64l-2.649,2.648c-1.697,1.696-1.697,4.459,0,6.156    l3.083,3.084c1.643,1.64,4.513,1.64,6.157-0.003l2.648-2.646C31.992,74.413,32.551,74.194,33.117,74.194z"/></g><g><path d="M49.833,63.249c-8.776,0-15.916-7.14-15.916-15.917c0-8.775,7.14-15.915,15.916-15.915c8.776,0,15.916,7.14,15.916,15.915    C65.749,56.109,58.609,63.249,49.833,63.249z M49.833,35.792c-6.365,0-11.542,5.177-11.542,11.541    c0,6.365,5.177,11.542,11.542,11.542s11.542-5.178,11.542-11.542C61.375,40.969,56.198,35.792,49.833,35.792z"/></g></g><text x="0" y="112.5" fill="#000000" font-size="5px" font-weight="bold" font-family="'Helvetica Neue', Helvetica, Arial-Unicode, Arial, Sans-serif">Created by Calvin Goodman</text><text x="0" y="117.5" fill="#000000" font-size="5px" font-weight="bold" font-family="'Helvetica Neue', Helvetica, Arial-Unicode, Arial, Sans-serif">from the Noun Project</text></svg>