<svg width="16" height="16" viewBox="0 0 16 16" fill="none" xmlns="http://www.w3.org/2000/svg">
<path d="M7.73307 8.53255C8.10126 8.53255 8.39974 8.23408 8.39974 7.86589C8.39974 7.4977 8.10126 7.19922 7.73307 7.19922C7.36488 7.19922 7.06641 7.4977 7.06641 7.86589C7.06641 8.23408 7.36488 8.53255 7.73307 8.53255Z" stroke="#344054" stroke-width="1.2" stroke-linecap="round" stroke-linejoin="round"/>
<path d="M12.401 8.53255C12.7692 8.53255 13.0677 8.23408 13.0677 7.86589C13.0677 7.4977 12.7692 7.19922 12.401 7.19922C12.0329 7.19922 11.7344 7.4977 11.7344 7.86589C11.7344 8.23408 12.0329 8.53255 12.401 8.53255Z" stroke="#344054" stroke-width="1.2" stroke-linecap="round" stroke-linejoin="round"/>
<path d="M3.06706 8.53255C3.43525 8.53255 3.73372 8.23408 3.73372 7.86589C3.73372 7.4977 3.43525 7.19922 3.06706 7.19922C2.69887 7.19922 2.40039 7.4977 2.40039 7.86589C2.40039 8.23408 2.69887 8.53255 3.06706 8.53255Z" stroke="#344054" stroke-width="1.2" stroke-linecap="round" stroke-linejoin="round"/>
</svg>
