<svg width="52" height="10" viewBox="0 0 52 10" fill="none" xmlns="http://www.w3.org/2000/svg">
<path opacity="0.35" d="M33.3997 2.50139C33.3997 1.57876 34.1476 0.830827 35.0702 0.830827H47.9207C48.8433 0.830827 49.5913 1.57876 49.5913 2.50139V7.12755C49.5913 8.05018 48.8433 8.79812 47.9207 8.79812H35.0702C34.1476 8.79812 33.3997 8.05018 33.3997 7.12756V2.50139Z" stroke="black" stroke-width="0.771028"/>
<path opacity="0.4" d="M50.748 3.26953V6.35364C51.3685 6.09244 51.772 5.4848 51.772 4.81159C51.772 4.13838 51.3685 3.53074 50.748 3.26953Z" fill="black"/>
<path d="M34.5562 2.83251C34.5562 2.3641 34.9359 1.98438 35.4043 1.98438H47.5865C48.0549 1.98438 48.4347 2.3641 48.4347 2.83251V6.79045C48.4347 7.25886 48.0549 7.63858 47.5865 7.63858H35.4043C34.9359 7.63858 34.5562 7.25886 34.5562 6.79045V2.83251Z" fill="black"/>
<path fill-rule="evenodd" clip-rule="evenodd" d="M23.2455 2.2012C24.954 2.20127 26.5972 2.85775 27.8354 4.03496C27.9286 4.12584 28.0777 4.1247 28.1695 4.03239L29.0608 3.13285C29.1073 3.08604 29.1332 3.02262 29.1328 2.95663C29.1325 2.89065 29.1058 2.82754 29.0588 2.78127C25.8088 -0.333338 20.6816 -0.333338 17.4317 2.78127C17.3846 2.8275 17.3579 2.89059 17.3574 2.95658C17.357 3.02256 17.3829 3.086 17.4293 3.13285L18.3209 4.03239C18.4127 4.12483 18.5618 4.12598 18.655 4.03496C19.8934 2.85768 21.5368 2.20119 23.2455 2.2012ZM23.2455 5.12776C24.1842 5.1277 25.0894 5.47662 25.7852 6.10671C25.8793 6.19613 26.0276 6.19419 26.1193 6.10234L27.0096 5.20281C27.0565 5.15562 27.0825 5.09162 27.0818 5.0251C27.0812 4.95859 27.0539 4.89513 27.006 4.84891C24.8871 2.87786 21.6056 2.87786 19.4867 4.84891C19.4388 4.89513 19.4115 4.95862 19.4109 5.02516C19.4103 5.09169 19.4364 5.15569 19.4834 5.20281L20.3734 6.10234C20.4651 6.19419 20.6134 6.19613 20.7075 6.10671C21.4029 5.47703 22.3074 5.12815 23.2455 5.12776ZM25.0288 7.09683C25.0302 7.16353 25.004 7.22783 24.9564 7.27456L23.4164 8.8287C23.3712 8.87437 23.3097 8.90008 23.2455 8.90008C23.1812 8.90008 23.1197 8.87437 23.0745 8.8287L21.5343 7.27456C21.4867 7.2278 21.4605 7.16347 21.4619 7.09677C21.4634 7.03007 21.4922 6.96691 21.5417 6.9222C22.5252 6.09035 23.9657 6.09035 24.9492 6.9222C24.9987 6.96695 25.0275 7.03013 25.0288 7.09683Z" fill="black"/>
<path fill-rule="evenodd" clip-rule="evenodd" d="M12.7105 0.703125H11.9394C11.5136 0.703125 11.1684 1.04833 11.1684 1.47415V8.1564C11.1684 8.58222 11.5136 8.92742 11.9394 8.92742H12.7105C13.1363 8.92742 13.4815 8.58222 13.4815 8.1564V1.47415C13.4815 1.04833 13.1363 0.703125 12.7105 0.703125ZM8.34131 2.50219H9.11234C9.53817 2.50219 9.88337 2.84739 9.88337 3.27322V8.1564C9.88337 8.58222 9.53817 8.92742 9.11234 8.92742H8.34131C7.91549 8.92742 7.57028 8.58222 7.57028 8.1564V3.27322C7.57028 2.84739 7.91549 2.50219 8.34131 2.50219ZM5.51421 4.30126H4.74318C4.31736 4.30126 3.97215 4.64646 3.97215 5.07228V8.1564C3.97215 8.58222 4.31736 8.92742 4.74318 8.92742H5.51421C5.94004 8.92742 6.28524 8.58222 6.28524 8.1564V5.07228C6.28524 4.64646 5.94004 4.30126 5.51421 4.30126ZM1.91608 5.84331H1.14505C0.719224 5.84331 0.374023 6.18851 0.374023 6.61434V8.1564C0.374023 8.58222 0.719224 8.92742 1.14505 8.92742H1.91608C2.34191 8.92742 2.68711 8.58222 2.68711 8.1564V6.61434C2.68711 6.18851 2.34191 5.84331 1.91608 5.84331Z" fill="black"/>
</svg>
