<svg xmlns="http://www.w3.org/2000/svg" viewBox="0 0 32 40" x="0px" y="0px"><g><path d="M22.37,6.29a1,1,0,0,0-1-1H10.63a1,1,0,0,0-1,1V20.76a1,1,0,0,0,1,1H21.37a1,1,0,0,0,1-1Zm-2,13.47H11.63V7.29h8.74ZM7.24,7.29V19.76a1,1,0,0,1-1,1H4a1,1,0,0,1,0-2H5.24V8.29H4a1,1,0,0,1,0-2H6.24A1,1,0,0,1,7.24,7.29ZM29,19.76a1,1,0,0,1-1,1H25.76a1,1,0,0,1-1-1V7.29a1,1,0,0,1,1-1H28a1,1,0,1,1,0,2H26.76V18.76H28A1,1,0,0,1,29,19.76ZM17,25.62a1,1,0,1,1-1-1A1,1,0,0,1,17,25.62Zm-7.11,0a1,1,0,1,1-1-1A1,1,0,0,1,9.89,25.62Zm14.22,0a1,1,0,1,1-1-1A1,1,0,0,1,24.11,25.62Z"/></g><text x="0" y="47" fill="#000000" font-size="5px" font-weight="bold" font-family="'Helvetica Neue', Helvetica, Arial-Unicode, Arial, Sans-serif">Created by The Icon Z</text><text x="0" y="52" fill="#000000" font-size="5px" font-weight="bold" font-family="'Helvetica Neue', Helvetica, Arial-Unicode, Arial, Sans-serif">from the Noun Project</text></svg>